<?xml version="1.0" encoding="UTF-8"?>
<!DOCTYPE svg PUBLIC "-//W3C//DTD SVG 1.1//EN" "http://www.w3.org/Graphics/SVG/1.1/DTD/svg11.dtd">
<svg xmlns="http://www.w3.org/2000/svg" version="1.1" width="900px" height="300px" style="shape-rendering:geometricPrecision; text-rendering:geometricPrecision; image-rendering:optimizeQuality; fill-rule:evenodd; clip-rule:evenodd" xmlns:xlink="http://www.w3.org/1999/xlink">
<g><path style="opacity:1" fill="#fefefe" d="M -0.5,-0.5 C 299.5,-0.5 599.5,-0.5 899.5,-0.5C 899.5,99.5 899.5,199.5 899.5,299.5C 599.5,299.5 299.5,299.5 -0.5,299.5C -0.5,199.5 -0.5,99.5 -0.5,-0.5 Z"/></g>
<g><path style="opacity:1" fill="#f5f5f5" d="M 239.5,211.5 C 242.398,205.928 242.065,200.594 238.5,195.5C 239.049,156.643 239.883,117.643 241,78.5C 245.327,56.9081 258.493,47.4081 280.5,50C 290.304,52.1461 297.471,57.6461 302,66.5C 304.21,75.0144 306.876,83.3477 310,91.5C 311.255,92.2106 312.421,93.044 313.5,94C 325.43,95.5193 337.097,98.186 348.5,102C 355.615,105.608 362.115,109.442 368,113.5C 369,112.167 370,112.167 371,113.5C 372.676,112.939 374.009,111.939 375,110.5C 375.333,110.833 375.667,111.167 376,111.5C 380.892,105.803 387.059,102.303 394.5,101C 411.343,99.9484 428.176,98.7817 445,97.5C 458.116,97.2258 469.116,101.892 478,111.5C 479.016,110.366 479.683,110.699 480,112.5C 480.667,111.833 481.333,111.167 482,110.5C 483.268,110.616 484.602,110.949 486,111.5C 509.987,94.4335 535.487,91.9335 562.5,104C 569.742,107.795 576.075,112.795 581.5,119C 583.762,119.642 585.929,120.475 588,121.5C 592.465,116.079 597.632,110.579 603.5,105C 608.535,102.407 613.868,100.741 619.5,100C 636.833,99.3333 654.167,99.3333 671.5,100C 681.995,101.495 691.495,105.329 700,111.5C 702.667,110.167 705.333,110.167 708,111.5C 712.956,105.06 717.623,97.7265 722,89.5C 734.958,75.5218 750.125,72.6885 767.5,81C 777.919,90.7564 788.919,99.7564 800.5,108C 809.34,119.544 810.84,132.044 805,145.5C 800,151.833 794.333,157.5 788,162.5C 783.125,169.392 783.458,176.058 789,182.5C 795,187.167 800.333,192.5 805,198.5C 813.148,223.684 804.314,239.184 778.5,245C 763.165,246.999 749.165,243.666 736.5,235C 732.934,231.095 729.1,227.595 725,224.5C 724.333,227.167 723.667,227.167 723,224.5C 722,225.833 721,225.833 720,224.5C 707.944,240.805 692.111,244.639 672.5,236C 668.2,232.702 664.2,229.035 660.5,225C 658.833,224.167 657.167,223.333 655.5,222.5C 649.645,227.523 643.645,232.356 637.5,237C 623.16,242.978 609.993,241.145 598,231.5C 596.333,228.833 594.667,226.167 593,223.5C 592.667,223.833 592.333,224.167 592,224.5C 590.667,223.167 589.333,221.833 588,220.5C 587.333,224.5 586.667,224.5 586,220.5C 580.567,230.184 572.067,237.017 560.5,241C 524.87,250.12 495.037,240.953 471,213.5C 461.194,199.415 456.194,183.748 456,166.5C 454.411,165.343 453.078,163.343 452,160.5C 445.15,161.634 440.15,165.634 437,172.5C 435.747,184.793 434.747,197.126 434,209.5C 429.668,234.095 415.168,243.929 390.5,239C 384.475,237.078 379.641,233.578 376,228.5C 374.853,229.458 373.853,229.125 373,227.5C 371.333,227.5 369.667,227.5 368,227.5C 362.061,230.629 355.894,234.129 349.5,238C 340.075,241.981 330.242,244.148 320,244.5C 304.242,242.323 288.408,241.156 272.5,241C 260.235,240.459 251.068,234.959 245,224.5C 243.406,219.831 241.573,215.498 239.5,211.5 Z"/></g>
<g><path style="opacity:1" fill="#545454" d="M 258.5,56.5 C 268.5,56.5 278.5,56.5 288.5,56.5C 288.5,57.8333 288.5,59.1667 288.5,60.5C 288.5,65.5 288.5,70.5 288.5,75.5C 288.333,88.8375 288.5,102.171 289,115.5C 293.496,111.813 298.329,108.813 303.5,106.5C 326.646,100.826 346.146,106.826 362,124.5C 366.232,130.298 369.399,136.631 371.5,143.5C 376.368,162.418 373.534,180.085 363,196.5C 343.997,218.936 321.163,223.77 294.5,211C 292.359,209.692 290.359,208.192 288.5,206.5C 286.981,209.044 285.648,211.711 284.5,214.5C 277.866,215.497 271.2,215.83 264.5,215.5C 262.5,215.5 260.5,215.5 258.5,215.5C 258.5,162.5 258.5,109.5 258.5,56.5 Z"/></g>
<g><path style="opacity:1" fill="#83da5d" d="M 238.5,195.5 C 242.065,200.594 242.398,205.928 239.5,211.5C 236.067,215.478 231.734,216.978 226.5,216C 219.293,210.46 213.126,203.96 208,196.5C 209.232,205.552 205.732,211.719 197.5,215C 164.167,215.667 130.833,215.667 97.5,215C 93.3333,213.5 90.5,210.667 89,206.5C 88.3333,160.5 88.3333,114.5 89,68.5C 90.8917,64.9421 93.7251,62.4421 97.5,61C 123.5,60.3333 149.5,60.3333 175.5,61C 186,71.5 196.5,82 207,92.5C 207.333,106.167 207.667,119.833 208,133.5C 211.372,138.986 212.872,144.986 212.5,151.5C 212.858,158.089 211.191,164.089 207.5,169.5C 217.639,178.402 227.973,187.069 238.5,195.5 Z"/></g>
<g><path style="opacity:1" fill="#ebebeb" d="M 288.5,60.5 C 292.623,64.0556 295.789,68.3889 298,73.5C 299.623,80.6185 301.623,87.6185 304,94.5C 305.555,97.0547 307.722,98.8881 310.5,100C 326.162,100.581 340.829,104.581 354.5,112C 358.912,115.29 363.412,118.456 368,121.5C 370.089,121.255 372.089,121.255 374,121.5C 377.667,118.5 381.333,115.5 385,112.5C 385.198,110.618 385.698,108.952 386.5,107.5C 386.5,113.167 386.5,118.833 386.5,124.5C 387.637,132.892 384.47,139.226 377,143.5C 375.184,143.351 373.351,143.351 371.5,143.5C 369.399,136.631 366.232,130.298 362,124.5C 346.146,106.826 326.646,100.826 303.5,106.5C 300.236,105.073 297.736,102.739 296,99.5C 294.178,91.1553 291.678,83.1553 288.5,75.5C 288.5,70.5 288.5,65.5 288.5,60.5 Z"/></g>
<g><path style="opacity:1" fill="#f0f0f0" d="M 257.5,61.5 C 257.152,67.2281 255.318,72.5614 252,77.5C 251.007,81.4423 250.34,85.4423 250,89.5C 249.333,126.5 249.333,163.5 250,200.5C 250.012,215.735 257.179,225.568 271.5,230C 287.723,230.906 303.889,232.406 320,234.5C 336.131,233.907 349.964,228.074 361.5,217C 366.981,212.854 372.647,212.188 378.5,215C 382.964,220.47 388.297,224.803 394.5,228C 411.227,230.536 421.06,223.369 424,206.5C 424.905,194.486 425.905,182.486 427,170.5C 428.632,164.07 432.132,158.903 437.5,155C 443.568,151.352 449.735,148.852 456,147.5C 457.667,147.5 459.333,147.5 461,147.5C 462.214,149.049 463.714,150.215 465.5,151C 465.167,151.333 464.833,151.667 464.5,152C 466.872,157.916 467.539,163.916 466.5,170C 469.743,203.581 487.743,224.581 520.5,233C 534.614,235.916 548.28,234.583 561.5,229C 569.539,224.09 573.873,216.924 574.5,207.5C 574.833,206.833 575.167,206.167 575.5,205.5C 575.338,200.818 576.505,196.485 579,192.5C 582.08,189.25 585.58,186.583 589.5,184.5C 590.386,185.325 590.719,186.325 590.5,187.5C 592.39,187.297 593.89,187.963 595,189.5C 596.745,200.732 600.079,211.399 605,221.5C 617.171,232.555 628.671,231.889 639.5,219.5C 642.23,214.476 644.064,209.143 645,203.5C 645.115,191.743 646.115,180.076 648,168.5C 653.814,159.388 659.147,159.721 664,169.5C 665.232,181.128 666.232,192.795 667,204.5C 671.135,226.144 683.302,232.977 703.5,225C 709.755,217.905 713.921,209.739 716,200.5C 716.707,198.919 717.54,197.419 718.5,196C 719.449,195.383 720.282,195.549 721,196.5C 721.333,194.833 721.667,193.167 722,191.5C 725.135,201.556 729.802,210.889 736,219.5C 747.687,232.729 762.187,237.562 779.5,234C 794.706,228.517 799.373,218.35 793.5,203.5C 793.5,200.833 793.5,198.167 793.5,195.5C 800.489,201.972 802.989,209.972 801,219.5C 797.046,230.574 789.212,237.074 777.5,239C 757.898,241.812 742.398,235.312 731,219.5C 728.338,217.172 725.672,214.839 723,212.5C 721.765,213.615 720.598,213.615 719.5,212.5C 715.053,217.885 710.72,223.385 706.5,229C 683.521,239.263 668.688,232.096 662,207.5C 660.295,197.223 659.129,186.89 658.5,176.5C 656.599,172.622 654.766,172.622 653,176.5C 651.869,185.124 651.202,193.79 651,202.5C 649.728,214.555 644.228,224.055 634.5,231C 619.012,237.572 606.845,233.739 598,219.5C 595.53,211.864 592.363,204.531 588.5,197.5C 585.5,199.167 583.167,201.5 581.5,204.5C 578.967,225.116 567.3,236.283 546.5,238C 514.93,241.489 490.097,230.322 472,204.5C 464.372,191.187 461.205,177.021 462.5,162C 461.743,160.488 460.743,159.154 459.5,158C 459.833,157.667 460.167,157.333 460.5,157C 459.012,155.283 457.179,154.116 455,153.5C 441.347,154.452 433.014,162.118 430,176.5C 429.738,187.195 429.071,197.862 428,208.5C 423.69,229.405 411.19,237.238 390.5,232C 385.023,228.024 379.69,223.858 374.5,219.5C 373.094,220.668 371.928,220.335 371,218.5C 368.429,219.401 366.096,220.734 364,222.5C 363.667,222.167 363.333,221.833 363,221.5C 348.642,234.397 331.808,239.897 312.5,238C 297.855,236.351 283.188,235.017 268.5,234C 253.732,228.872 246.232,218.372 246,202.5C 245.333,164.167 245.333,125.833 246,87.5C 245.894,76.9493 249.727,68.2827 257.5,61.5 Z"/></g>
<g><path style="opacity:1" fill="#fdfefd" d="M 151.5,176.5 C 138.167,177.167 124.833,177.833 111.5,178.5C 109.418,179.585 109.084,181.085 110.5,183C 127.833,183.333 145.167,183.667 162.5,184C 173.492,187.609 184.325,187.109 195,182.5C 197.987,184.154 200.321,186.487 202,189.5C 202.851,195.253 202.517,200.92 201,206.5C 200.167,207.333 199.333,208.167 198.5,209C 164.833,209.667 131.167,209.667 97.5,209C 95.9512,207.786 94.7845,206.286 94,204.5C 93.0106,159.083 93.3439,113.75 95,68.5C 96.1711,67.1068 97.6711,66.2735 99.5,66C 123.498,65.5 147.498,65.3334 171.5,65.5C 171.334,75.5056 171.5,85.5056 172,95.5C 172.5,96 173,96.5 173.5,97C 183.161,97.4998 192.828,97.6665 202.5,97.5C 202.666,106.839 202.5,116.173 202,125.5C 191.408,116.144 179.241,113.311 165.5,117C 161.172,118.829 157.172,121.162 153.5,124C 139.167,124.333 124.833,124.667 110.5,125C 109.167,126.667 109.167,128.333 110.5,130C 122.833,130.333 135.167,130.667 147.5,131C 145.136,134.559 143.469,138.392 142.5,142.5C 131.828,142.333 121.161,142.5 110.5,143C 109.167,144.667 109.167,146.333 110.5,148C 120.828,148.5 131.161,148.666 141.5,148.5C 141.395,152.548 141.728,156.548 142.5,160.5C 131.828,160.333 121.161,160.5 110.5,161C 109.62,162.356 109.286,163.856 109.5,165.5C 121.186,165.168 132.852,165.501 144.5,166.5C 146.351,170.212 148.684,173.546 151.5,176.5 Z"/></g>
<g><path style="opacity:1" fill="#e7e7e7" d="M 258.5,56.5 C 258.5,109.5 258.5,162.5 258.5,215.5C 260.5,215.5 262.5,215.5 264.5,215.5C 266.947,218.899 270.28,221.065 274.5,222C 286.176,222.93 297.842,223.93 309.5,225C 323.923,227.449 337.256,224.782 349.5,217C 356.009,211.323 362.343,205.489 368.5,199.5C 371.381,197.764 374.215,196.764 377,196.5C 379.763,198.382 382.43,201.049 385,204.5C 385.177,208.356 385.677,212.023 386.5,215.5C 396.5,215.5 406.5,215.5 416.5,215.5C 416.5,208.833 416.5,202.167 416.5,195.5C 417.21,187.303 418.044,178.97 419,170.5C 420.99,160.521 426.157,152.688 434.5,147C 442.936,143.462 450.603,138.962 457.5,133.5C 459.167,133.5 460.833,133.5 462.5,133.5C 463.666,125.815 464.666,118.149 465.5,110.5C 469.215,114.38 473.381,117.713 478,120.5C 479.705,119.237 481.372,118.903 483,119.5C 491.318,113.914 500.485,109.081 510.5,105C 538.644,97.5281 561.977,104.861 580.5,127C 583.585,128.96 586.752,130.793 590,132.5C 591.257,130.254 593.09,128.921 595.5,128.5C 597.401,121.7 601.068,116.033 606.5,111.5C 606.5,146.167 606.5,180.833 606.5,215.5C 616.5,215.5 626.5,215.5 636.5,215.5C 637.332,197.004 637.832,178.338 638,159.5C 644.728,146.033 654.561,142.867 667.5,150C 670.057,152.892 672.224,156.059 674,159.5C 674.168,178.338 674.668,197.004 675.5,215.5C 685.681,215.827 695.681,215.494 705.5,214.5C 707.899,210.952 709.399,206.952 710,202.5C 710.906,191.144 711.739,179.81 712.5,168.5C 711.449,164.575 711.782,160.742 713.5,157C 712.416,154.81 713.083,153.144 715.5,152C 715.167,151.667 714.833,151.333 714.5,151C 716.101,150.727 717.601,150.227 719,149.5C 720.487,150.253 720.654,151.086 719.5,152C 721.959,152.724 722.959,154.057 722.5,156C 725.136,159.327 726.803,163.161 727.5,167.5C 726.405,183.232 729.239,198.232 736,212.5C 748.259,230.476 764.426,235.309 784.5,227C 787.806,223.541 790.473,219.708 792.5,215.5C 793.483,211.702 793.817,207.702 793.5,203.5C 799.373,218.35 794.706,228.517 779.5,234C 762.187,237.562 747.687,232.729 736,219.5C 729.802,210.889 725.135,201.556 722,191.5C 721.667,193.167 721.333,194.833 721,196.5C 720.282,195.549 719.449,195.383 718.5,196C 717.54,197.419 716.707,198.919 716,200.5C 713.921,209.739 709.755,217.905 703.5,225C 683.302,232.977 671.135,226.144 667,204.5C 666.232,192.795 665.232,181.128 664,169.5C 659.147,159.721 653.814,159.388 648,168.5C 646.115,180.076 645.115,191.743 645,203.5C 644.064,209.143 642.23,214.476 639.5,219.5C 628.671,231.889 617.171,232.555 605,221.5C 600.079,211.399 596.745,200.732 595,189.5C 593.89,187.963 592.39,187.297 590.5,187.5C 590.719,186.325 590.386,185.325 589.5,184.5C 585.58,186.583 582.08,189.25 579,192.5C 576.505,196.485 575.338,200.818 575.5,205.5C 572.582,200.667 569.916,195.667 567.5,190.5C 570.429,186.394 573.596,182.394 577,178.5C 578.719,177.131 580.552,176.131 582.5,175.5C 587.957,152.034 581.624,132.2 563.5,116C 535.639,98.2024 510.139,101.036 487,124.5C 475.479,138.918 471.312,155.251 474.5,173.5C 479.072,202.241 495.739,219.408 524.5,225C 531.167,225.667 537.833,225.667 544.5,225C 551.964,223.684 557.63,219.851 561.5,213.5C 565.979,211.76 570.313,209.76 574.5,207.5C 573.873,216.924 569.539,224.09 561.5,229C 548.28,234.583 534.614,235.916 520.5,233C 487.743,224.581 469.743,203.581 466.5,170C 467.539,163.916 466.872,157.916 464.5,152C 464.833,151.667 465.167,151.333 465.5,151C 463.714,150.215 462.214,149.049 461,147.5C 459.333,147.5 457.667,147.5 456,147.5C 449.735,148.852 443.568,151.352 437.5,155C 432.132,158.903 428.632,164.07 427,170.5C 425.905,182.486 424.905,194.486 424,206.5C 421.06,223.369 411.227,230.536 394.5,228C 388.297,224.803 382.964,220.47 378.5,215C 372.647,212.188 366.981,212.854 361.5,217C 349.964,228.074 336.131,233.907 320,234.5C 303.889,232.406 287.723,230.906 271.5,230C 257.179,225.568 250.012,215.735 250,200.5C 249.333,163.5 249.333,126.5 250,89.5C 250.34,85.4423 251.007,81.4423 252,77.5C 255.318,72.5614 257.152,67.2281 257.5,61.5C 257.216,59.5853 257.549,57.9187 258.5,56.5 Z"/></g>
<g><path style="opacity:1" fill="#e1e1e1" d="M 288.5,75.5 C 291.678,83.1553 294.178,91.1553 296,99.5C 297.736,102.739 300.236,105.073 303.5,106.5C 298.329,108.813 293.496,111.813 289,115.5C 288.5,102.171 288.333,88.8375 288.5,75.5 Z"/></g>
<g><path style="opacity:1" fill="#555555" d="M 734.5,83.5 C 744.5,83.5 754.5,83.5 764.5,83.5C 764.5,91.5 764.5,99.5 764.5,107.5C 774.167,107.5 783.833,107.5 793.5,107.5C 794.138,116.895 793.471,125.895 791.5,134.5C 782.5,134.5 773.5,134.5 764.5,134.5C 764.333,150.17 764.5,165.837 765,181.5C 766.967,188.303 771.467,191.969 778.5,192.5C 783.636,192.708 788.636,192.041 793.5,190.5C 793.5,192.167 793.5,193.833 793.5,195.5C 793.5,198.167 793.5,200.833 793.5,203.5C 793.817,207.702 793.483,211.702 792.5,215.5C 781.77,219.024 770.77,220.191 759.5,219C 746.232,215.398 738.065,206.898 735,193.5C 734.5,173.836 734.333,154.169 734.5,134.5C 729.167,134.5 723.833,134.5 718.5,134.5C 718.5,132.167 718.5,129.833 718.5,127.5C 718.173,122.786 718.507,118.12 719.5,113.5C 721.945,112.688 724.278,111.688 726.5,110.5C 728.886,109.702 731.22,108.702 733.5,107.5C 734.498,99.5277 734.831,91.5277 734.5,83.5 Z"/></g>
<g><path style="opacity:1" fill="#ececec" d="M 733.5,87.5 C 733.666,91.8461 733.499,96.1794 733,100.5C 730.19,103.464 728.024,106.798 726.5,110.5C 724.278,111.688 721.945,112.688 719.5,113.5C 718.507,118.12 718.173,122.786 718.5,127.5C 717.404,129.103 716.07,130.603 714.5,132C 715.833,133.84 715.666,134.34 714,133.5C 713.517,134.448 713.351,135.448 713.5,136.5C 709.992,135.885 706.659,134.885 703.5,133.5C 693.195,113.178 676.528,104.678 653.5,108C 647.443,109.349 641.943,111.849 637,115.5C 635.374,113.083 633.874,110.583 632.5,108C 623.84,107.5 615.173,107.334 606.5,107.5C 611.316,106.674 616.316,106.174 621.5,106C 638.167,105.333 654.833,105.333 671.5,106C 682.038,107.853 691.538,112.02 700,118.5C 700.333,118.167 700.667,117.833 701,117.5C 704.128,120.1 707.295,120.1 710.5,117.5C 716.741,110.022 722.241,102.022 727,93.5C 729.037,91.2941 731.203,89.2941 733.5,87.5 Z"/></g>
<g><path style="opacity:1" fill="#d2d2d2" d="M 734.5,83.5 C 734.831,91.5277 734.498,99.5277 733.5,107.5C 731.22,108.702 728.886,109.702 726.5,110.5C 728.024,106.798 730.19,103.464 733,100.5C 733.499,96.1794 733.666,91.8461 733.5,87.5C 733.232,85.901 733.566,84.5676 734.5,83.5 Z"/></g>
<g><path style="opacity:1" fill="#e9e9e9" d="M 452.5,104.5 C 437.483,103.592 425.65,109.259 417,121.5C 415.789,117.245 414.622,112.912 413.5,108.5C 404.525,107.502 395.525,107.168 386.5,107.5C 405.529,106.345 424.695,105.011 444,103.5C 447.021,103.502 449.854,103.836 452.5,104.5 Z"/></g>
<g><path style="opacity:1" fill="#545454" d="M 582.5,175.5 C 557.158,175.167 531.825,175.5 506.5,176.5C 515.918,190.203 528.918,195.703 545.5,193C 551.58,191.813 557.58,190.313 563.5,188.5C 565.073,188.752 566.406,189.418 567.5,190.5C 569.916,195.667 572.582,200.667 575.5,205.5C 575.167,206.167 574.833,206.833 574.5,207.5C 570.313,209.76 565.979,211.76 561.5,213.5C 531.668,224 506.168,217.667 485,194.5C 480.436,187.936 476.936,180.936 474.5,173.5C 471.312,155.251 475.479,138.918 487,124.5C 510.139,101.036 535.639,98.2024 563.5,116C 581.624,132.2 587.957,152.034 582.5,175.5 Z"/></g>
<g><path style="opacity:1" fill="#545454" d="M 452.5,104.5 C 456.263,104.857 459.93,105.69 463.5,107C 464.973,107.71 465.64,108.876 465.5,110.5C 464.666,118.149 463.666,125.815 462.5,133.5C 460.833,133.5 459.167,133.5 457.5,133.5C 442.632,129.509 430.132,133.509 420,145.5C 418.725,147.717 417.725,150.051 417,152.5C 416.5,166.829 416.333,181.163 416.5,195.5C 416.5,202.167 416.5,208.833 416.5,215.5C 406.5,215.5 396.5,215.5 386.5,215.5C 386.5,185.167 386.5,154.833 386.5,124.5C 386.5,118.833 386.5,113.167 386.5,107.5C 395.525,107.168 404.525,107.502 413.5,108.5C 414.622,112.912 415.789,117.245 417,121.5C 425.65,109.259 437.483,103.592 452.5,104.5 Z"/></g>
<g><path style="opacity:1" fill="#7ed957" d="M 110.5,107.5 C 123.504,107.333 136.504,107.5 149.5,108C 150.833,109.333 150.833,110.667 149.5,112C 136.5,112.667 123.5,112.667 110.5,112C 109.272,110.51 109.272,109.01 110.5,107.5 Z"/></g>
<g><path style="opacity:1" fill="#545454" d="M 606.5,107.5 C 615.173,107.334 623.84,107.5 632.5,108C 633.874,110.583 635.374,113.083 637,115.5C 641.943,111.849 647.443,109.349 653.5,108C 676.528,104.678 693.195,113.178 703.5,133.5C 703.838,135.854 704.338,138.187 705,140.5C 705.5,165.164 705.667,189.831 705.5,214.5C 695.681,215.494 685.681,215.827 675.5,215.5C 675.667,192.831 675.5,170.164 675,147.5C 672.272,138.378 666.105,134.045 656.5,134.5C 646.907,134.212 640.407,138.545 637,147.5C 636.5,170.164 636.333,192.831 636.5,215.5C 626.5,215.5 616.5,215.5 606.5,215.5C 606.5,180.833 606.5,146.167 606.5,111.5C 606.5,110.167 606.5,108.833 606.5,107.5 Z"/></g>
<g><path style="opacity:1" fill="#fdfefd" d="M 170.5,120.5 C 195.996,119.829 208.163,132.162 207,157.5C 201.207,175.822 188.707,183.655 169.5,181C 148.675,172.511 142.175,157.678 150,136.5C 154.963,128.696 161.796,123.363 170.5,120.5 Z"/></g>
<g><path style="opacity:1" fill="#dfdfdf" d="M 718.5,127.5 C 718.5,129.833 718.5,132.167 718.5,134.5C 723.833,134.5 729.167,134.5 734.5,134.5C 734.333,154.169 734.5,173.836 735,193.5C 738.065,206.898 746.232,215.398 759.5,219C 770.77,220.191 781.77,219.024 792.5,215.5C 790.473,219.708 787.806,223.541 784.5,227C 764.426,235.309 748.259,230.476 736,212.5C 729.239,198.232 726.405,183.232 727.5,167.5C 726.803,163.161 725.136,159.327 722.5,156C 722.959,154.057 721.959,152.724 719.5,152C 720.654,151.086 720.487,150.253 719,149.5C 717.601,150.227 716.101,150.727 714.5,151C 714.833,151.333 715.167,151.667 715.5,152C 713.083,153.144 712.416,154.81 713.5,157C 711.782,160.742 711.449,164.575 712.5,168.5C 711.739,179.81 710.906,191.144 710,202.5C 709.399,206.952 707.899,210.952 705.5,214.5C 705.667,189.831 705.5,165.164 705,140.5C 704.338,138.187 703.838,135.854 703.5,133.5C 706.659,134.885 709.992,135.885 713.5,136.5C 713.351,135.448 713.517,134.448 714,133.5C 715.666,134.34 715.833,133.84 714.5,132C 716.07,130.603 717.404,129.103 718.5,127.5 Z"/></g>
<g><path style="opacity:1" fill="#d0d0d0" d="M 523.5,131.5 C 539.812,129.814 550.145,136.814 554.5,152.5C 537.82,152.833 521.153,152.499 504.5,151.5C 508.183,142.154 514.517,135.487 523.5,131.5 Z"/></g>
<g><path style="opacity:1" fill="#d9d9d9" d="M 457.5,133.5 C 450.603,138.962 442.936,143.462 434.5,147C 426.157,152.688 420.99,160.521 419,170.5C 418.044,178.97 417.21,187.303 416.5,195.5C 416.333,181.163 416.5,166.829 417,152.5C 417.725,150.051 418.725,147.717 420,145.5C 430.132,133.509 442.632,129.509 457.5,133.5 Z"/></g>
<g><path style="opacity:1" fill="#d4d4d4" d="M 343.5,167.5 C 341.417,151.085 332.083,142.085 315.5,140.5C 306.593,141.207 299.427,145.207 294,152.5C 291.838,156.481 290.005,160.481 288.5,164.5C 287.284,155.786 289.117,147.786 294,140.5C 304.009,131.087 315.509,128.92 328.5,134C 341.326,141.808 346.326,152.974 343.5,167.5 Z"/></g>
<g><path style="opacity:1" fill="#e0e0e0" d="M 791.5,134.5 C 787.345,142.166 781.845,148.833 775,154.5C 770.251,163.349 769.251,172.683 772,182.5C 773.928,186.032 776.095,189.366 778.5,192.5C 771.467,191.969 766.967,188.303 765,181.5C 764.5,165.837 764.333,150.17 764.5,134.5C 773.5,134.5 782.5,134.5 791.5,134.5 Z"/></g>
<g><path style="opacity:1" fill="#d0d0d0" d="M 675.5,215.5 C 674.668,197.004 674.168,178.338 674,159.5C 672.224,156.059 670.057,152.892 667.5,150C 654.561,142.867 644.728,146.033 638,159.5C 637.832,178.338 637.332,197.004 636.5,215.5C 636.333,192.831 636.5,170.164 637,147.5C 640.407,138.545 646.907,134.212 656.5,134.5C 666.105,134.045 672.272,138.378 675,147.5C 675.5,170.164 675.667,192.831 675.5,215.5 Z"/></g>
<g><path style="opacity:1" fill="#e5e5e5" d="M 343.5,167.5 C 340.876,179.628 333.542,187.461 321.5,191C 301.686,193.011 290.686,184.178 288.5,164.5C 290.005,160.481 291.838,156.481 294,152.5C 299.427,145.207 306.593,141.207 315.5,140.5C 332.083,142.085 341.417,151.085 343.5,167.5 Z"/></g>
<g><path style="opacity:1" fill="#f2f2f2" d="M 311.5,153.5 C 323.702,152.765 330.702,158.432 332.5,170.5C 329.054,185.389 320.387,189.889 306.5,184C 300.462,177.828 298.962,170.662 302,162.5C 304.406,158.592 307.572,155.592 311.5,153.5 Z"/></g>
<g><path style="opacity:1" fill="#ddf5d4" d="M 151.5,176.5 C 152.289,176.783 152.956,177.283 153.5,178C 139.504,178.5 125.504,178.667 111.5,178.5C 124.833,177.833 138.167,177.167 151.5,176.5 Z"/></g>
<g><path style="opacity:1" fill="#d4d4d4" d="M 582.5,175.5 C 580.552,176.131 578.719,177.131 577,178.5C 573.596,182.394 570.429,186.394 567.5,190.5C 566.406,189.418 565.073,188.752 563.5,188.5C 557.58,190.313 551.58,191.813 545.5,193C 528.918,195.703 515.918,190.203 506.5,176.5C 531.825,175.5 557.158,175.167 582.5,175.5 Z"/></g>
<g><path style="opacity:1" fill="#d7d7d7" d="M 474.5,173.5 C 476.936,180.936 480.436,187.936 485,194.5C 506.168,217.667 531.668,224 561.5,213.5C 557.63,219.851 551.964,223.684 544.5,225C 537.833,225.667 531.167,225.667 524.5,225C 495.739,219.408 479.072,202.241 474.5,173.5 Z"/></g>
<g><path style="opacity:1" fill="#d8d8d8" d="M 386.5,124.5 C 386.5,154.833 386.5,185.167 386.5,215.5C 385.677,212.023 385.177,208.356 385,204.5C 382.43,201.049 379.763,198.382 377,196.5C 374.215,196.764 371.381,197.764 368.5,199.5C 362.343,205.489 356.009,211.323 349.5,217C 337.256,224.782 323.923,227.449 309.5,225C 297.842,223.93 286.176,222.93 274.5,222C 270.28,221.065 266.947,218.899 264.5,215.5C 271.2,215.83 277.866,215.497 284.5,214.5C 285.648,211.711 286.981,209.044 288.5,206.5C 290.359,208.192 292.359,209.692 294.5,211C 321.163,223.77 343.997,218.936 363,196.5C 373.534,180.085 376.368,162.418 371.5,143.5C 373.351,143.351 375.184,143.351 377,143.5C 384.47,139.226 387.637,132.892 386.5,124.5 Z"/></g>
</svg>
